<svg width="62" height="62" viewBox="0 0 62 62" fill="none" xmlns="http://www.w3.org/2000/svg">
<path d="M30.72 13.653C21.309 13.653 13.653 21.309 13.653 30.72C13.653 40.131 21.309 47.787 30.72 47.787C40.131 47.787 47.787 40.131 47.787 30.72C47.787 21.309 40.131 13.653 30.72 13.653ZM30.72 40.96C25.073 40.96 20.48 36.367 20.48 30.72C20.48 25.073 25.073 20.48 30.72 20.48C36.367 20.48 40.96 25.073 40.96 30.72C40.96 36.367 36.367 40.96 30.72 40.96Z" fill="#42b984"/>
<path d="M30.72 0C13.781 0 0 13.781 0 30.72C0 47.659 13.781 61.44 30.72 61.44C47.659 61.44 61.44 47.659 61.44 30.72C61.44 13.781 47.659 0 30.72 0ZM30.72 54.613C17.545 54.613 6.827 43.895 6.827 30.72C6.827 17.545 17.545 6.827 30.72 6.827C43.895 6.827 54.613 17.545 54.613 30.72C54.613 43.895 43.896 54.613 30.72 54.613Z" fill="#42b984"/>
</svg>
