<svg width="62" height="62" viewBox="0 0 62 62" fill="none" xmlns="http://www.w3.org/2000/svg">
<path d="M45.1953 30.72L58.4342 17.48C62.4262 13.49 62.4262 6.993 58.4362 3.002C56.5032 1.067 53.9313 0 51.1943 0C48.4573 0 45.8853 1.067 43.9543 3L30.7143 16.24L17.4753 3.002C15.5433 1.067 12.9713 0 10.2343 0C7.49725 0 4.92525 1.067 2.99425 3C-0.99775 6.99 -0.99775 13.487 2.99425 17.479L16.2332 30.719L2.99425 43.96C-0.99775 47.95 -0.99775 54.447 2.99225 58.438C4.92425 60.373 7.49625 61.44 10.2333 61.44C12.9703 61.44 15.5422 60.373 17.4732 58.44L30.7133 45.2L43.9523 58.439C45.8843 60.374 48.4563 61.441 51.1933 61.441C53.9303 61.441 56.5023 60.374 58.4333 58.441C62.4253 54.451 62.4253 47.954 58.4333 43.962L45.1953 30.72ZM53.6053 53.615C52.3183 54.902 50.0703 54.904 48.7803 53.613L33.1273 37.96C32.4613 37.293 31.5883 36.96 30.7143 36.96C29.8403 36.96 28.9662 37.295 28.3012 37.96L12.6453 53.615C11.3583 54.902 9.11125 54.904 7.82025 53.613C6.49125 52.283 6.49125 50.116 7.82025 48.787L23.4742 33.133C24.8072 31.8 24.8072 29.639 23.4742 28.307L7.82025 12.653C6.49125 11.324 6.49125 9.156 7.82225 7.825C9.10925 6.538 11.3573 6.536 12.6473 7.827L28.3002 23.48C29.6312 24.813 31.7953 24.813 33.1263 23.48L48.7823 7.825C50.0693 6.538 52.3173 6.536 53.6073 7.827C54.9363 9.156 54.9363 11.324 53.6073 12.653L37.9533 28.307C36.6203 29.64 36.6203 31.801 37.9533 33.133L53.6073 48.787C54.9363 50.116 54.9363 52.284 53.6053 53.615Z" fill="#42b984"/>
</svg>
